<svg xmlns="http://www.w3.org/2000/svg" xmlns:xlink="http://www.w3.org/1999/xlink" width="1000" zoomAndPan="magnify" viewBox="0 0 750 749.999995" height="1000" preserveAspectRatio="xMidYMid meet" version="1.0"><defs><g/><clipPath id="cc970b0c0f"><path d="M 287 176 L 329 176 L 329 271 L 287 271 Z M 287 176 " clip-rule="nonzero"/></clipPath><clipPath id="6775ba46b2"><path d="M 229.519531 221.574219 L 303.90625 169.585938 L 354.601562 242.125 L 280.21875 294.113281 Z M 229.519531 221.574219 " clip-rule="nonzero"/></clipPath><clipPath id="5d4ec77cb4"><path d="M 229.519531 221.574219 L 303.90625 169.585938 L 354.601562 242.125 L 280.21875 294.113281 Z M 229.519531 221.574219 " clip-rule="nonzero"/></clipPath><clipPath id="0ad3f6f647"><path d="M 240 220 L 302 220 L 302 260 L 240 260 Z M 240 220 " clip-rule="nonzero"/></clipPath><clipPath id="7b1f7bfc49"><path d="M 229.519531 221.574219 L 303.90625 169.585938 L 354.601562 242.125 L 280.21875 294.113281 Z M 229.519531 221.574219 " clip-rule="nonzero"/></clipPath><clipPath id="b85c816f1f"><path d="M 229.519531 221.574219 L 303.90625 169.585938 L 354.601562 242.125 L 280.21875 294.113281 Z M 229.519531 221.574219 " clip-rule="nonzero"/></clipPath><clipPath id="827cf4cf5b"><path d="M 240.121094 220.738281 C 241.867188 224.714844 246.125 227.09375 250.394531 227.851562 C 254.664062 228.605469 259.046875 228.03125 263.371094 227.683594 C 267.695312 227.332031 272.1875 227.234375 276.210938 228.871094 C 279.707031 230.296875 282.5625 232.933594 285.066406 235.765625 C 288.097656 239.1875 290.777344 243.144531 292.042969 247.488281 C 289.703125 245.972656 287.164062 244.730469 284.5625 243.738281 C 279.449219 241.773438 274.058594 240.644531 268.699219 239.53125 C 262.433594 238.230469 256.175781 236.925781 249.910156 235.625 C 258.511719 240.003906 268.207031 241.585938 277.445312 244.410156 C 286.675781 247.226562 296.03125 251.757812 301.09375 259.976562 C 297.910156 256.1875 292.386719 255.273438 287.464844 255.804688 C 282.546875 256.332031 277.796875 258.035156 272.859375 258.449219 C 263.511719 259.203125 253.910156 254.964844 248.207031 247.539062 C 242.4375 240.027344 240.828125 230.183594 240.121094 220.738281 Z M 240.121094 220.738281 " clip-rule="nonzero"/></clipPath><clipPath id="d3bc61c3c5"><path d="M 270 247 L 494 247 L 494 476.757812 L 270 476.757812 Z M 270 247 " clip-rule="nonzero"/></clipPath><clipPath id="f15b90039d"><path d="M 288 239.007812 L 475 239.007812 L 475 475 L 288 475 Z M 288 239.007812 " clip-rule="nonzero"/></clipPath></defs><g clip-path="url(#cc970b0c0f)"><g clip-path="url(#6775ba46b2)"><g clip-path="url(#5d4ec77cb4)"><path fill="#a98a0f" d="M 293.699219 176.71875 C 297.835938 180.683594 298.855469 187.039062 297.855469 192.675781 C 296.863281 198.316406 294.15625 203.480469 291.765625 208.679688 C 289.363281 213.878906 287.203125 219.410156 287.421875 225.132812 C 287.605469 230.113281 289.574219 234.855469 291.945312 239.234375 C 294.804688 244.5625 298.492188 249.671875 303.296875 253.210938 C 302.480469 249.621094 302.097656 245.914062 302.039062 242.234375 C 301.917969 235 302.96875 227.8125 304.015625 220.65625 C 305.242188 212.296875 306.46875 203.949219 307.695312 195.59375 C 309.21875 208.238281 306.792969 220.988281 306.097656 233.707031 C 305.410156 246.429688 306.785156 260.085938 314.671875 270.089844 C 311.421875 264.421875 312.789062 257.160156 315.6875 251.296875 C 318.585938 245.433594 322.84375 240.316406 325.585938 234.386719 C 330.777344 223.171875 329.875 209.34375 323.253906 198.902344 C 316.5625 188.339844 305.085938 181.863281 293.699219 176.71875 Z M 293.699219 176.71875 " fill-opacity="1" fill-rule="nonzero"/></g></g></g><g clip-path="url(#0ad3f6f647)"><g clip-path="url(#7b1f7bfc49)"><g clip-path="url(#b85c816f1f)"><g clip-path="url(#827cf4cf5b)"><path fill="#00588c" d="M 281.085938 192.109375 L 319.519531 247.101562 L 260.132812 288.605469 L 221.699219 233.617188 Z M 281.085938 192.109375 " fill-opacity="1" fill-rule="nonzero"/></g></g></g></g><g clip-path="url(#d3bc61c3c5)"><path fill="#00588c" d="M 341.816406 247.609375 L 392.46875 247.609375 C 397.882812 247.609375 402.324219 252.054688 402.324219 257.46875 L 402.324219 309.597656 L 427.222656 309.597656 C 424.316406 312.5625 421.414062 315.410156 418.5625 318.144531 C 408.023438 328.117188 396.800781 337.515625 385.402344 346.460938 C 373.210938 356.089844 360.675781 365.320312 347.800781 374.039062 C 342.558594 377.628906 337.257812 381.332031 331.960938 385.207031 L 331.960938 379.90625 L 279.886719 379.90625 C 274.472656 379.90625 270.027344 375.519531 270.027344 370.105469 L 270.027344 319.398438 C 270.027344 313.988281 274.472656 309.597656 279.886719 309.597656 L 331.960938 309.597656 L 331.960938 257.46875 C 331.960938 252.054688 336.40625 247.609375 341.816406 247.609375 Z M 483.859375 311.59375 C 489.15625 332.503906 479.355469 352.160156 464.257812 369.023438 L 464.257812 339.738281 C 452.121094 355.578125 436.398438 368.453125 419.816406 379.90625 L 453.433594 379.90625 C 439.53125 392.613281 423.519531 403.210938 410.644531 410.84375 C 409.5625 411.472656 406.542969 413.066406 402.324219 415.347656 L 402.324219 391.417969 C 400.902344 392.328125 399.476562 393.183594 398.050781 394.09375 C 384.207031 402.753906 370.078125 411.015625 356.515625 420.1875 C 348.65625 425.429688 340.847656 431.128906 333.554688 437.394531 C 335.324219 440.074219 338.398438 441.839844 341.816406 441.839844 L 357.371094 441.839844 C 334.808594 457.222656 319.425781 473.175781 346.660156 476.652344 C 346.660156 476.652344 344.210938 472.890625 346.035156 470.613281 C 351.390625 463.890625 394.632812 440.074219 408.082031 434.320312 C 446.082031 417.964844 520.4375 353.128906 483.859375 311.59375 Z M 483.859375 311.59375 " fill-opacity="1" fill-rule="evenodd"/></g><g clip-path="url(#f15b90039d)"><path fill="#a98a0f" d="M 441.808594 239.007812 C 441.808594 239.007812 462.378906 271.710938 446.027344 295.867188 C 429.671875 320.082031 385.234375 355.464844 351.046875 378.765625 C 316.863281 402.070312 294.1875 422.070312 288.714844 441.441406 C 283.246094 460.753906 310.195312 472.890625 331.390625 474.085938 C 331.390625 474.085938 304.15625 459.558594 318.058594 444.460938 C 355.546875 403.664062 427.335938 381.617188 462.09375 333.074219 C 478.101562 310.738281 486.308594 269.546875 441.808594 239.007812 Z M 441.808594 239.007812 " fill-opacity="1" fill-rule="evenodd"/></g><path fill="#a98a0f" d="M 354.066406 474.371094 C 354.066406 474.371094 457.25 438.707031 477.191406 394.207031 C 477.191406 394.207031 466.023438 462.921875 354.066406 474.371094 Z M 354.066406 474.371094 " fill-opacity="1" fill-rule="evenodd"/><g fill="#00588c" fill-opacity="1"><g transform="translate(171.854227, 539.738624)"><g><path d="M 33.484375 -34.171875 C 33.140625 -33.941406 32.628906 -33.519531 31.953125 -32.90625 C 31.285156 -32.289062 30.546875 -31.566406 29.734375 -30.734375 C 28.921875 -29.910156 28.0625 -29.015625 27.15625 -28.046875 C 26.257812 -27.085938 25.382812 -26.164062 24.53125 -25.28125 L 20.609375 -21.125 C 22.078125 -18.96875 23.492188 -16.800781 24.859375 -14.625 C 26.222656 -12.457031 27.8125 -10.375 29.625 -8.375 C 30.382812 -7.488281 31.140625 -6.707031 31.890625 -6.03125 C 32.648438 -5.351562 33.453125 -4.773438 34.296875 -4.296875 C 35.140625 -3.816406 36.039062 -3.410156 37 -3.078125 C 37.96875 -2.753906 39.066406 -2.5 40.296875 -2.3125 L 40.640625 -2.078125 L 40.765625 0.109375 L 40.640625 0.34375 C 40.066406 0.34375 39.453125 0.351562 38.796875 0.375 C 38.140625 0.394531 37.472656 0.421875 36.796875 0.453125 C 36.128906 0.492188 35.503906 0.523438 34.921875 0.546875 C 34.347656 0.566406 33.867188 0.578125 33.484375 0.578125 C 32.484375 0.578125 31.554688 0.453125 30.703125 0.203125 C 29.859375 -0.046875 29.039062 -0.457031 28.25 -1.03125 C 27.46875 -1.613281 26.671875 -2.382812 25.859375 -3.34375 C 25.054688 -4.3125 24.171875 -5.488281 23.203125 -6.875 C 22.972656 -7.21875 22.578125 -7.820312 22.015625 -8.6875 C 21.460938 -9.550781 20.859375 -10.503906 20.203125 -11.546875 C 19.546875 -12.585938 18.890625 -13.632812 18.234375 -14.6875 C 17.585938 -15.75 17.015625 -16.664062 16.515625 -17.4375 C 16.046875 -17.007812 15.582031 -16.59375 15.125 -16.1875 C 14.664062 -15.789062 14.222656 -15.378906 13.796875 -14.953125 L 13.796875 -14.484375 C 13.796875 -12.867188 13.796875 -11.628906 13.796875 -10.765625 C 13.796875 -9.898438 13.804688 -9.207031 13.828125 -8.6875 C 13.847656 -8.164062 13.863281 -7.738281 13.875 -7.40625 C 13.894531 -7.082031 13.925781 -6.671875 13.96875 -6.171875 C 14.050781 -5.054688 14.222656 -4.285156 14.484375 -3.859375 C 14.753906 -3.441406 15.046875 -3.117188 15.359375 -2.890625 C 15.703125 -2.578125 16.148438 -2.398438 16.703125 -2.359375 C 17.265625 -2.328125 17.851562 -2.3125 18.46875 -2.3125 L 18.703125 -2.078125 L 18.875 0.109375 L 18.765625 0.34375 C 18.492188 0.34375 18.050781 0.320312 17.4375 0.28125 C 16.820312 0.25 16.1875 0.210938 15.53125 0.171875 C 14.875 0.128906 14.238281 0.0859375 13.625 0.046875 C 13.007812 0.015625 12.566406 0 12.296875 0 L 8.890625 0 C 8.617188 0 8.175781 0.015625 7.5625 0.046875 C 6.945312 0.0859375 6.3125 0.128906 5.65625 0.171875 C 5 0.210938 4.363281 0.25 3.75 0.28125 C 3.132812 0.320312 2.691406 0.34375 2.421875 0.34375 L 2.3125 0.109375 L 2.484375 -2.078125 L 2.765625 -2.3125 C 3.378906 -2.3125 3.957031 -2.335938 4.5 -2.390625 C 5.039062 -2.453125 5.484375 -2.617188 5.828125 -2.890625 C 6.140625 -3.160156 6.4375 -3.503906 6.71875 -3.921875 C 7.007812 -4.347656 7.195312 -5.097656 7.28125 -6.171875 C 7.28125 -6.441406 7.285156 -6.757812 7.296875 -7.125 C 7.316406 -7.488281 7.335938 -7.941406 7.359375 -8.484375 C 7.378906 -9.023438 7.390625 -9.679688 7.390625 -10.453125 C 7.390625 -11.222656 7.390625 -12.1875 7.390625 -13.34375 L 7.390625 -22.75 C 7.390625 -24.09375 7.390625 -25.226562 7.390625 -26.15625 C 7.390625 -27.082031 7.390625 -27.867188 7.390625 -28.515625 C 7.390625 -29.171875 7.378906 -29.726562 7.359375 -30.1875 C 7.335938 -30.65625 7.3125 -31.117188 7.28125 -31.578125 C 7.195312 -32.617188 7.007812 -33.367188 6.71875 -33.828125 C 6.4375 -34.296875 6.140625 -34.644531 5.828125 -34.875 C 5.484375 -35.175781 5.039062 -35.347656 4.5 -35.390625 C 3.957031 -35.429688 3.378906 -35.453125 2.765625 -35.453125 L 2.484375 -35.6875 L 2.3125 -37.875 L 2.421875 -38.109375 C 2.691406 -38.109375 3.132812 -38.085938 3.75 -38.046875 C 4.363281 -38.003906 5 -37.960938 5.65625 -37.921875 C 6.3125 -37.890625 6.945312 -37.851562 7.5625 -37.8125 C 8.175781 -37.78125 8.617188 -37.765625 8.890625 -37.765625 L 12.296875 -37.765625 C 12.566406 -37.765625 13.007812 -37.78125 13.625 -37.8125 C 14.238281 -37.851562 14.875 -37.890625 15.53125 -37.921875 C 16.1875 -37.960938 16.820312 -38.003906 17.4375 -38.046875 C 18.050781 -38.085938 18.492188 -38.109375 18.765625 -38.109375 L 18.875 -37.875 L 18.703125 -35.6875 L 18.46875 -35.453125 C 17.9375 -35.453125 17.367188 -35.421875 16.765625 -35.359375 C 16.171875 -35.304688 15.703125 -35.144531 15.359375 -34.875 C 15.046875 -34.601562 14.742188 -34.253906 14.453125 -33.828125 C 14.171875 -33.410156 14.007812 -32.660156 13.96875 -31.578125 C 13.925781 -31.117188 13.894531 -30.664062 13.875 -30.21875 C 13.863281 -29.78125 13.847656 -29.257812 13.828125 -28.65625 C 13.804688 -28.0625 13.796875 -27.367188 13.796875 -26.578125 C 13.796875 -25.796875 13.796875 -24.847656 13.796875 -23.734375 L 13.796875 -20.953125 C 14.566406 -21.335938 15.453125 -21.925781 16.453125 -22.71875 C 17.453125 -23.507812 18.453125 -24.363281 19.453125 -25.28125 C 20.179688 -25.976562 20.929688 -26.738281 21.703125 -27.5625 C 22.472656 -28.394531 23.175781 -29.195312 23.8125 -29.96875 C 24.445312 -30.738281 24.957031 -31.429688 25.34375 -32.046875 C 25.726562 -32.660156 25.921875 -33.082031 25.921875 -33.3125 C 25.921875 -33.738281 25.832031 -34.078125 25.65625 -34.328125 C 25.488281 -34.578125 25.257812 -34.773438 24.96875 -34.921875 C 24.675781 -35.078125 24.335938 -35.191406 23.953125 -35.265625 C 23.566406 -35.347656 23.1875 -35.425781 22.8125 -35.5 L 22.515625 -35.734375 L 22.515625 -37.9375 L 22.8125 -38.15625 C 23.570312 -38.007812 24.382812 -37.914062 25.25 -37.875 C 26.125 -37.832031 27.003906 -37.8125 27.890625 -37.8125 L 33.03125 -37.8125 C 33.488281 -37.8125 33.878906 -37.8125 34.203125 -37.8125 C 34.535156 -37.8125 34.863281 -37.832031 35.1875 -37.875 C 35.519531 -37.914062 35.875 -37.953125 36.25 -37.984375 C 36.632812 -38.023438 37.097656 -38.082031 37.640625 -38.15625 L 37.875 -37.9375 L 37.875 -35.734375 L 37.640625 -35.5 C 37.097656 -35.425781 36.414062 -35.273438 35.59375 -35.046875 C 34.769531 -34.816406 34.066406 -34.523438 33.484375 -34.171875 Z M 33.484375 -34.171875 "/></g></g></g><g fill="#00588c" fill-opacity="1"><g transform="translate(213.474484, 539.738624)"><g><path d="M 7.21875 -31.578125 C 7.132812 -32.234375 6.988281 -32.878906 6.78125 -33.515625 C 6.570312 -34.148438 6.253906 -34.617188 5.828125 -34.921875 C 5.523438 -35.117188 5.140625 -35.253906 4.671875 -35.328125 C 4.210938 -35.410156 3.578125 -35.453125 2.765625 -35.453125 L 2.484375 -35.6875 L 2.3125 -37.875 L 2.421875 -38.109375 C 2.765625 -38.066406 3.234375 -38.023438 3.828125 -37.984375 C 4.429688 -37.953125 5.050781 -37.914062 5.6875 -37.875 C 6.320312 -37.832031 6.925781 -37.800781 7.5 -37.78125 C 8.082031 -37.769531 8.546875 -37.765625 8.890625 -37.765625 L 12.296875 -37.765625 C 12.640625 -37.765625 13.085938 -37.769531 13.640625 -37.78125 C 14.203125 -37.800781 14.800781 -37.832031 15.4375 -37.875 C 16.070312 -37.914062 16.6875 -37.953125 17.28125 -37.984375 C 17.882812 -38.023438 18.378906 -38.066406 18.765625 -38.109375 L 18.875 -37.875 L 18.703125 -35.6875 L 18.46875 -35.453125 C 17.507812 -35.453125 16.804688 -35.398438 16.359375 -35.296875 C 15.921875 -35.203125 15.566406 -35.0625 15.296875 -34.875 C 14.492188 -34.332031 14.03125 -33.234375 13.90625 -31.578125 C 13.875 -31.191406 13.847656 -30.796875 13.828125 -30.390625 C 13.804688 -29.992188 13.796875 -29.476562 13.796875 -28.84375 C 13.796875 -28.207031 13.796875 -27.40625 13.796875 -26.4375 C 13.796875 -25.476562 13.796875 -24.269531 13.796875 -22.8125 L 13.796875 -15.0625 C 13.796875 -13.5625 13.796875 -12.335938 13.796875 -11.390625 C 13.796875 -10.453125 13.804688 -9.664062 13.828125 -9.03125 C 13.847656 -8.394531 13.863281 -7.835938 13.875 -7.359375 C 13.894531 -6.878906 13.945312 -6.3125 14.03125 -5.65625 C 14.070312 -4.882812 14.515625 -4.5 15.359375 -4.5 L 20.734375 -4.5 C 21.992188 -4.5 23 -4.523438 23.75 -4.578125 C 24.507812 -4.640625 25.097656 -4.796875 25.515625 -5.046875 C 25.941406 -5.296875 26.269531 -5.648438 26.5 -6.109375 C 26.726562 -6.578125 26.941406 -7.21875 27.140625 -8.03125 L 27.3125 -8.25 L 29.96875 -8.25 L 28.921875 -0.34375 L 28.46875 0.234375 C 28.15625 0.191406 27.671875 0.160156 27.015625 0.140625 C 26.359375 0.117188 25.664062 0.0976562 24.9375 0.078125 C 24.207031 0.0664062 23.484375 0.0507812 22.765625 0.03125 C 22.054688 0.0078125 21.507812 0 21.125 0 L 8.890625 0 C 8.617188 0 8.1875 0.0078125 7.59375 0.03125 C 7 0.0507812 6.375 0.078125 5.71875 0.109375 C 5.0625 0.148438 4.425781 0.1875 3.8125 0.21875 C 3.195312 0.257812 2.734375 0.300781 2.421875 0.34375 L 2.3125 0.109375 L 2.484375 -2.078125 L 2.765625 -2.3125 C 4.234375 -2.3125 5.238281 -2.519531 5.78125 -2.9375 C 6.082031 -3.207031 6.375 -3.628906 6.65625 -4.203125 C 6.945312 -4.785156 7.132812 -5.460938 7.21875 -6.234375 C 7.257812 -6.617188 7.285156 -7.144531 7.296875 -7.8125 C 7.316406 -8.488281 7.335938 -9.191406 7.359375 -9.921875 C 7.378906 -10.660156 7.390625 -11.347656 7.390625 -11.984375 C 7.390625 -12.617188 7.390625 -13.070312 7.390625 -13.34375 L 7.390625 -22.75 C 7.390625 -24.863281 7.378906 -26.71875 7.359375 -28.3125 C 7.335938 -29.914062 7.289062 -31.003906 7.21875 -31.578125 Z M 7.21875 -31.578125 "/></g></g></g><g fill="#00588c" fill-opacity="1"><g transform="translate(245.454626, 539.738624)"><g><path d="M 18.875 -37.875 L 18.703125 -35.6875 L 18.46875 -35.453125 C 17.851562 -35.453125 17.273438 -35.421875 16.734375 -35.359375 C 16.203125 -35.304688 15.742188 -35.144531 15.359375 -34.875 C 15.015625 -34.601562 14.695312 -34.253906 14.40625 -33.828125 C 14.113281 -33.410156 13.96875 -32.660156 13.96875 -31.578125 C 13.925781 -31.035156 13.894531 -30.535156 13.875 -30.078125 C 13.863281 -29.617188 13.847656 -29.082031 13.828125 -28.46875 C 13.804688 -27.851562 13.796875 -27.101562 13.796875 -26.21875 C 13.796875 -25.332031 13.796875 -24.195312 13.796875 -22.8125 L 13.796875 -14.484375 C 13.796875 -13.097656 13.796875 -11.972656 13.796875 -11.109375 C 13.796875 -10.242188 13.804688 -9.519531 13.828125 -8.9375 C 13.847656 -8.363281 13.863281 -7.875 13.875 -7.46875 C 13.894531 -7.070312 13.925781 -6.640625 13.96875 -6.171875 C 14.050781 -5.097656 14.222656 -4.347656 14.484375 -3.921875 C 14.753906 -3.503906 15.046875 -3.160156 15.359375 -2.890625 C 15.703125 -2.617188 16.148438 -2.453125 16.703125 -2.390625 C 17.265625 -2.335938 17.851562 -2.3125 18.46875 -2.3125 L 18.703125 -2.078125 L 18.875 0.109375 L 18.765625 0.34375 C 18.492188 0.34375 18.050781 0.320312 17.4375 0.28125 C 16.820312 0.25 16.1875 0.210938 15.53125 0.171875 C 14.875 0.128906 14.238281 0.0859375 13.625 0.046875 C 13.007812 0.015625 12.566406 0 12.296875 0 L 8.890625 0 C 8.617188 0 8.175781 0.015625 7.5625 0.046875 C 6.945312 0.0859375 6.3125 0.128906 5.65625 0.171875 C 5 0.210938 4.363281 0.25 3.75 0.28125 C 3.132812 0.320312 2.691406 0.34375 2.421875 0.34375 L 2.3125 0.109375 L 2.484375 -2.078125 L 2.765625 -2.3125 C 3.378906 -2.3125 3.96875 -2.335938 4.53125 -2.390625 C 5.09375 -2.453125 5.523438 -2.617188 5.828125 -2.890625 C 6.140625 -3.160156 6.421875 -3.503906 6.671875 -3.921875 C 6.921875 -4.347656 7.125 -5.097656 7.28125 -6.171875 C 7.28125 -6.441406 7.285156 -6.757812 7.296875 -7.125 C 7.316406 -7.488281 7.335938 -7.941406 7.359375 -8.484375 C 7.378906 -9.023438 7.390625 -9.679688 7.390625 -10.453125 C 7.390625 -11.222656 7.390625 -12.1875 7.390625 -13.34375 L 7.390625 -22.75 C 7.390625 -24.09375 7.390625 -25.226562 7.390625 -26.15625 C 7.390625 -27.082031 7.378906 -27.867188 7.359375 -28.515625 C 7.335938 -29.171875 7.316406 -29.726562 7.296875 -30.1875 C 7.285156 -30.65625 7.257812 -31.117188 7.21875 -31.578125 C 7.132812 -32.578125 6.957031 -33.304688 6.6875 -33.765625 C 6.425781 -34.234375 6.140625 -34.601562 5.828125 -34.875 C 5.484375 -35.144531 5.039062 -35.304688 4.5 -35.359375 C 3.957031 -35.421875 3.378906 -35.453125 2.765625 -35.453125 L 2.484375 -35.6875 L 2.3125 -37.875 L 2.421875 -38.109375 C 2.691406 -38.109375 3.132812 -38.085938 3.75 -38.046875 C 4.363281 -38.003906 5 -37.960938 5.65625 -37.921875 C 6.3125 -37.890625 6.945312 -37.851562 7.5625 -37.8125 C 8.175781 -37.78125 8.617188 -37.765625 8.890625 -37.765625 L 12.296875 -37.765625 C 12.566406 -37.765625 13.007812 -37.78125 13.625 -37.8125 C 14.238281 -37.851562 14.875 -37.890625 15.53125 -37.921875 C 16.1875 -37.960938 16.820312 -38.003906 17.4375 -38.046875 C 18.050781 -38.085938 18.492188 -38.109375 18.765625 -38.109375 Z M 18.875 -37.875 "/></g></g></g><g fill="#00588c" fill-opacity="1"><g transform="translate(268.08328, 539.738624)"><g><path d="M 43.46875 -37.875 L 43.359375 -35.6875 L 43.0625 -35.453125 C 42.488281 -35.453125 41.921875 -35.421875 41.359375 -35.359375 C 40.804688 -35.304688 40.359375 -35.144531 40.015625 -34.875 C 39.703125 -34.601562 39.378906 -34.253906 39.046875 -33.828125 C 38.722656 -33.410156 38.503906 -32.660156 38.390625 -31.578125 C 38.347656 -31.035156 38.316406 -30.535156 38.296875 -30.078125 C 38.285156 -29.617188 38.269531 -29.082031 38.25 -28.46875 C 38.226562 -27.851562 38.21875 -27.101562 38.21875 -26.21875 C 38.21875 -25.332031 38.21875 -24.195312 38.21875 -22.8125 L 38.21875 -13.796875 C 38.21875 -11.640625 38.226562 -9.867188 38.25 -8.484375 C 38.269531 -7.097656 38.285156 -5.914062 38.296875 -4.9375 C 38.316406 -3.957031 38.359375 -3.082031 38.421875 -2.3125 C 38.484375 -1.539062 38.550781 -0.691406 38.625 0.234375 L 38.15625 0.515625 L 31.0625 0.234375 L 30.484375 -0.46875 L 12.640625 -27.359375 C 12.722656 -26.671875 12.769531 -25.566406 12.78125 -24.046875 C 12.800781 -22.523438 12.8125 -20.765625 12.8125 -18.765625 L 12.8125 -14.484375 C 12.8125 -14.023438 12.8125 -13.421875 12.8125 -12.671875 C 12.8125 -11.921875 12.820312 -11.140625 12.84375 -10.328125 C 12.863281 -9.523438 12.882812 -8.75 12.90625 -8 C 12.925781 -7.25 12.953125 -6.640625 12.984375 -6.171875 C 13.066406 -5.210938 13.28125 -4.484375 13.625 -3.984375 C 13.96875 -3.484375 14.332031 -3.117188 14.71875 -2.890625 C 15.03125 -2.578125 15.4375 -2.398438 15.9375 -2.359375 C 16.4375 -2.328125 17.070312 -2.3125 17.84375 -2.3125 L 18.125 -2.078125 L 18.296875 0.109375 L 18.1875 0.34375 C 17.875 0.34375 17.4375 0.320312 16.875 0.28125 C 16.320312 0.25 15.75 0.210938 15.15625 0.171875 C 14.5625 0.128906 13.984375 0.0859375 13.421875 0.046875 C 12.867188 0.015625 12.457031 0 12.1875 0 L 8.78125 0 C 8.507812 0 8.066406 0.015625 7.453125 0.046875 C 6.835938 0.0859375 6.203125 0.128906 5.546875 0.171875 C 4.890625 0.210938 4.253906 0.25 3.640625 0.28125 C 3.023438 0.320312 2.582031 0.34375 2.3125 0.34375 L 2.1875 0.109375 L 2.359375 -2.078125 L 2.65625 -2.3125 C 3.34375 -2.3125 3.925781 -2.335938 4.40625 -2.390625 C 4.894531 -2.453125 5.332031 -2.617188 5.71875 -2.890625 C 5.988281 -3.078125 6.316406 -3.390625 6.703125 -3.828125 C 7.085938 -4.273438 7.335938 -5.054688 7.453125 -6.171875 C 7.484375 -6.441406 7.507812 -6.757812 7.53125 -7.125 C 7.550781 -7.488281 7.5625 -7.941406 7.5625 -8.484375 C 7.5625 -9.023438 7.5625 -9.679688 7.5625 -10.453125 C 7.5625 -11.222656 7.5625 -12.1875 7.5625 -13.34375 L 7.5625 -22.75 C 7.5625 -24.09375 7.5625 -25.226562 7.5625 -26.15625 C 7.5625 -27.082031 7.5625 -27.867188 7.5625 -28.515625 C 7.5625 -29.171875 7.550781 -29.726562 7.53125 -30.1875 C 7.507812 -30.65625 7.484375 -31.117188 7.453125 -31.578125 C 7.367188 -32.390625 7.144531 -33.082031 6.78125 -33.65625 C 6.414062 -34.238281 6.0625 -34.644531 5.71875 -34.875 C 5.375 -35.175781 4.941406 -35.347656 4.421875 -35.390625 C 3.898438 -35.429688 3.3125 -35.453125 2.65625 -35.453125 L 2.359375 -35.6875 L 2.1875 -37.875 L 2.3125 -38.109375 C 2.582031 -38.109375 2.972656 -38.085938 3.484375 -38.046875 C 4.003906 -38.003906 4.535156 -37.960938 5.078125 -37.921875 C 5.617188 -37.890625 6.148438 -37.851562 6.671875 -37.8125 C 7.191406 -37.78125 7.585938 -37.765625 7.859375 -37.765625 L 12.765625 -37.765625 C 13.066406 -37.765625 13.445312 -37.78125 13.90625 -37.8125 C 14.375 -37.851562 14.78125 -37.910156 15.125 -37.984375 L 15.421875 -37.8125 C 15.535156 -37.269531 15.820312 -36.523438 16.28125 -35.578125 C 16.738281 -34.640625 17.304688 -33.582031 17.984375 -32.40625 C 18.660156 -31.238281 19.378906 -30.007812 20.140625 -28.71875 C 20.910156 -27.425781 21.679688 -26.148438 22.453125 -24.890625 C 23.835938 -22.578125 25.066406 -20.5625 26.140625 -18.84375 C 27.222656 -17.132812 28.1875 -15.644531 29.03125 -14.375 C 29.882812 -13.101562 30.617188 -12.035156 31.234375 -11.171875 C 31.847656 -10.304688 32.367188 -9.582031 32.796875 -9 C 32.796875 -10 32.800781 -10.976562 32.8125 -11.9375 C 32.832031 -12.90625 32.84375 -13.890625 32.84375 -14.890625 L 32.84375 -22.75 C 32.84375 -24.09375 32.84375 -25.226562 32.84375 -26.15625 C 32.84375 -27.082031 32.832031 -27.867188 32.8125 -28.515625 C 32.800781 -29.171875 32.785156 -29.726562 32.765625 -30.1875 C 32.742188 -30.65625 32.710938 -31.117188 32.671875 -31.578125 C 32.597656 -32.234375 32.4375 -32.835938 32.1875 -33.390625 C 31.9375 -33.953125 31.539062 -34.445312 31 -34.875 C 30.65625 -35.175781 30.203125 -35.347656 29.640625 -35.390625 C 29.085938 -35.429688 28.503906 -35.453125 27.890625 -35.453125 L 27.65625 -35.6875 L 27.484375 -37.875 L 27.59375 -38.109375 C 27.863281 -38.109375 28.25 -38.085938 28.75 -38.046875 C 29.25 -38.003906 29.757812 -37.960938 30.28125 -37.921875 C 30.800781 -37.890625 31.3125 -37.851562 31.8125 -37.8125 C 32.3125 -37.78125 32.695312 -37.765625 32.96875 -37.765625 L 37.984375 -37.765625 C 38.253906 -37.765625 38.640625 -37.769531 39.140625 -37.78125 C 39.640625 -37.800781 40.160156 -37.832031 40.703125 -37.875 C 41.242188 -37.914062 41.765625 -37.953125 42.265625 -37.984375 C 42.765625 -38.023438 43.148438 -38.066406 43.421875 -38.109375 Z M 43.46875 -37.875 "/></g></g></g><g fill="#00588c" fill-opacity="1"><g transform="translate(314.61019, 539.738624)"><g><path d="M 18.875 -37.875 L 18.703125 -35.6875 L 18.46875 -35.453125 C 17.851562 -35.453125 17.273438 -35.421875 16.734375 -35.359375 C 16.203125 -35.304688 15.742188 -35.144531 15.359375 -34.875 C 15.015625 -34.601562 14.695312 -34.253906 14.40625 -33.828125 C 14.113281 -33.410156 13.96875 -32.660156 13.96875 -31.578125 C 13.925781 -31.035156 13.894531 -30.535156 13.875 -30.078125 C 13.863281 -29.617188 13.847656 -29.082031 13.828125 -28.46875 C 13.804688 -27.851562 13.796875 -27.101562 13.796875 -26.21875 C 13.796875 -25.332031 13.796875 -24.195312 13.796875 -22.8125 L 13.796875 -14.484375 C 13.796875 -13.097656 13.796875 -11.972656 13.796875 -11.109375 C 13.796875 -10.242188 13.804688 -9.519531 13.828125 -8.9375 C 13.847656 -8.363281 13.863281 -7.875 13.875 -7.46875 C 13.894531 -7.070312 13.925781 -6.640625 13.96875 -6.171875 C 14.050781 -5.097656 14.222656 -4.347656 14.484375 -3.921875 C 14.753906 -3.503906 15.046875 -3.160156 15.359375 -2.890625 C 15.703125 -2.617188 16.148438 -2.453125 16.703125 -2.390625 C 17.265625 -2.335938 17.851562 -2.3125 18.46875 -2.3125 L 18.703125 -2.078125 L 18.875 0.109375 L 18.765625 0.34375 C 18.492188 0.34375 18.050781 0.320312 17.4375 0.28125 C 16.820312 0.25 16.1875 0.210938 15.53125 0.171875 C 14.875 0.128906 14.238281 0.0859375 13.625 0.046875 C 13.007812 0.015625 12.566406 0 12.296875 0 L 8.890625 0 C 8.617188 0 8.175781 0.015625 7.5625 0.046875 C 6.945312 0.0859375 6.3125 0.128906 5.65625 0.171875 C 5 0.210938 4.363281 0.25 3.75 0.28125 C 3.132812 0.320312 2.691406 0.34375 2.421875 0.34375 L 2.3125 0.109375 L 2.484375 -2.078125 L 2.765625 -2.3125 C 3.378906 -2.3125 3.96875 -2.335938 4.53125 -2.390625 C 5.09375 -2.453125 5.523438 -2.617188 5.828125 -2.890625 C 6.140625 -3.160156 6.421875 -3.503906 6.671875 -3.921875 C 6.921875 -4.347656 7.125 -5.097656 7.28125 -6.171875 C 7.28125 -6.441406 7.285156 -6.757812 7.296875 -7.125 C 7.316406 -7.488281 7.335938 -7.941406 7.359375 -8.484375 C 7.378906 -9.023438 7.390625 -9.679688 7.390625 -10.453125 C 7.390625 -11.222656 7.390625 -12.1875 7.390625 -13.34375 L 7.390625 -22.75 C 7.390625 -24.09375 7.390625 -25.226562 7.390625 -26.15625 C 7.390625 -27.082031 7.378906 -27.867188 7.359375 -28.515625 C 7.335938 -29.171875 7.316406 -29.726562 7.296875 -30.1875 C 7.285156 -30.65625 7.257812 -31.117188 7.21875 -31.578125 C 7.132812 -32.578125 6.957031 -33.304688 6.6875 -33.765625 C 6.425781 -34.234375 6.140625 -34.601562 5.828125 -34.875 C 5.484375 -35.144531 5.039062 -35.304688 4.5 -35.359375 C 3.957031 -35.421875 3.378906 -35.453125 2.765625 -35.453125 L 2.484375 -35.6875 L 2.3125 -37.875 L 2.421875 -38.109375 C 2.691406 -38.109375 3.132812 -38.085938 3.75 -38.046875 C 4.363281 -38.003906 5 -37.960938 5.65625 -37.921875 C 6.3125 -37.890625 6.945312 -37.851562 7.5625 -37.8125 C 8.175781 -37.78125 8.617188 -37.765625 8.890625 -37.765625 L 12.296875 -37.765625 C 12.566406 -37.765625 13.007812 -37.78125 13.625 -37.8125 C 14.238281 -37.851562 14.875 -37.890625 15.53125 -37.921875 C 16.1875 -37.960938 16.820312 -38.003906 17.4375 -38.046875 C 18.050781 -38.085938 18.492188 -38.109375 18.765625 -38.109375 Z M 18.875 -37.875 "/></g></g></g><g fill="#00588c" fill-opacity="1"><g transform="translate(337.238844, 539.738624)"><g><path d="M 33.484375 -34.171875 C 33.140625 -33.941406 32.628906 -33.519531 31.953125 -32.90625 C 31.285156 -32.289062 30.546875 -31.566406 29.734375 -30.734375 C 28.921875 -29.910156 28.0625 -29.015625 27.15625 -28.046875 C 26.257812 -27.085938 25.382812 -26.164062 24.53125 -25.28125 L 20.609375 -21.125 C 22.078125 -18.96875 23.492188 -16.800781 24.859375 -14.625 C 26.222656 -12.457031 27.8125 -10.375 29.625 -8.375 C 30.382812 -7.488281 31.140625 -6.707031 31.890625 -6.03125 C 32.648438 -5.351562 33.453125 -4.773438 34.296875 -4.296875 C 35.140625 -3.816406 36.039062 -3.410156 37 -3.078125 C 37.96875 -2.753906 39.066406 -2.5 40.296875 -2.3125 L 40.640625 -2.078125 L 40.765625 0.109375 L 40.640625 0.34375 C 40.066406 0.34375 39.453125 0.351562 38.796875 0.375 C 38.140625 0.394531 37.472656 0.421875 36.796875 0.453125 C 36.128906 0.492188 35.503906 0.523438 34.921875 0.546875 C 34.347656 0.566406 33.867188 0.578125 33.484375 0.578125 C 32.484375 0.578125 31.554688 0.453125 30.703125 0.203125 C 29.859375 -0.046875 29.039062 -0.457031 28.25 -1.03125 C 27.46875 -1.613281 26.671875 -2.382812 25.859375 -3.34375 C 25.054688 -4.3125 24.171875 -5.488281 23.203125 -6.875 C 22.972656 -7.21875 22.578125 -7.820312 22.015625 -8.6875 C 21.460938 -9.550781 20.859375 -10.503906 20.203125 -11.546875 C 19.546875 -12.585938 18.890625 -13.632812 18.234375 -14.6875 C 17.585938 -15.75 17.015625 -16.664062 16.515625 -17.4375 C 16.046875 -17.007812 15.582031 -16.59375 15.125 -16.1875 C 14.664062 -15.789062 14.222656 -15.378906 13.796875 -14.953125 L 13.796875 -14.484375 C 13.796875 -12.867188 13.796875 -11.628906 13.796875 -10.765625 C 13.796875 -9.898438 13.804688 -9.207031 13.828125 -8.6875 C 13.847656 -8.164062 13.863281 -7.738281 13.875 -7.40625 C 13.894531 -7.082031 13.925781 -6.671875 13.96875 -6.171875 C 14.050781 -5.054688 14.222656 -4.285156 14.484375 -3.859375 C 14.753906 -3.441406 15.046875 -3.117188 15.359375 -2.890625 C 15.703125 -2.578125 16.148438 -2.398438 16.703125 -2.359375 C 17.265625 -2.328125 17.851562 -2.3125 18.46875 -2.3125 L 18.703125 -2.078125 L 18.875 0.109375 L 18.765625 0.34375 C 18.492188 0.34375 18.050781 0.320312 17.4375 0.28125 C 16.820312 0.25 16.1875 0.210938 15.53125 0.171875 C 14.875 0.128906 14.238281 0.0859375 13.625 0.046875 C 13.007812 0.015625 12.566406 0 12.296875 0 L 8.890625 0 C 8.617188 0 8.175781 0.015625 7.5625 0.046875 C 6.945312 0.0859375 6.3125 0.128906 5.65625 0.171875 C 5 0.210938 4.363281 0.25 3.75 0.28125 C 3.132812 0.320312 2.691406 0.34375 2.421875 0.34375 L 2.3125 0.109375 L 2.484375 -2.078125 L 2.765625 -2.3125 C 3.378906 -2.3125 3.957031 -2.335938 4.5 -2.390625 C 5.039062 -2.453125 5.484375 -2.617188 5.828125 -2.890625 C 6.140625 -3.160156 6.4375 -3.503906 6.71875 -3.921875 C 7.007812 -4.347656 7.195312 -5.097656 7.28125 -6.171875 C 7.28125 -6.441406 7.285156 -6.757812 7.296875 -7.125 C 7.316406 -7.488281 7.335938 -7.941406 7.359375 -8.484375 C 7.378906 -9.023438 7.390625 -9.679688 7.390625 -10.453125 C 7.390625 -11.222656 7.390625 -12.1875 7.390625 -13.34375 L 7.390625 -22.75 C 7.390625 -24.09375 7.390625 -25.226562 7.390625 -26.15625 C 7.390625 -27.082031 7.390625 -27.867188 7.390625 -28.515625 C 7.390625 -29.171875 7.378906 -29.726562 7.359375 -30.1875 C 7.335938 -30.65625 7.3125 -31.117188 7.28125 -31.578125 C 7.195312 -32.617188 7.007812 -33.367188 6.71875 -33.828125 C 6.4375 -34.296875 6.140625 -34.644531 5.828125 -34.875 C 5.484375 -35.175781 5.039062 -35.347656 4.5 -35.390625 C 3.957031 -35.429688 3.378906 -35.453125 2.765625 -35.453125 L 2.484375 -35.6875 L 2.3125 -37.875 L 2.421875 -38.109375 C 2.691406 -38.109375 3.132812 -38.085938 3.75 -38.046875 C 4.363281 -38.003906 5 -37.960938 5.65625 -37.921875 C 6.3125 -37.890625 6.945312 -37.851562 7.5625 -37.8125 C 8.175781 -37.78125 8.617188 -37.765625 8.890625 -37.765625 L 12.296875 -37.765625 C 12.566406 -37.765625 13.007812 -37.78125 13.625 -37.8125 C 14.238281 -37.851562 14.875 -37.890625 15.53125 -37.921875 C 16.1875 -37.960938 16.820312 -38.003906 17.4375 -38.046875 C 18.050781 -38.085938 18.492188 -38.109375 18.765625 -38.109375 L 18.875 -37.875 L 18.703125 -35.6875 L 18.46875 -35.453125 C 17.9375 -35.453125 17.367188 -35.421875 16.765625 -35.359375 C 16.171875 -35.304688 15.703125 -35.144531 15.359375 -34.875 C 15.046875 -34.601562 14.742188 -34.253906 14.453125 -33.828125 C 14.171875 -33.410156 14.007812 -32.660156 13.96875 -31.578125 C 13.925781 -31.117188 13.894531 -30.664062 13.875 -30.21875 C 13.863281 -29.78125 13.847656 -29.257812 13.828125 -28.65625 C 13.804688 -28.0625 13.796875 -27.367188 13.796875 -26.578125 C 13.796875 -25.796875 13.796875 -24.847656 13.796875 -23.734375 L 13.796875 -20.953125 C 14.566406 -21.335938 15.453125 -21.925781 16.453125 -22.71875 C 17.453125 -23.507812 18.453125 -24.363281 19.453125 -25.28125 C 20.179688 -25.976562 20.929688 -26.738281 21.703125 -27.5625 C 22.472656 -28.394531 23.175781 -29.195312 23.8125 -29.96875 C 24.445312 -30.738281 24.957031 -31.429688 25.34375 -32.046875 C 25.726562 -32.660156 25.921875 -33.082031 25.921875 -33.3125 C 25.921875 -33.738281 25.832031 -34.078125 25.65625 -34.328125 C 25.488281 -34.578125 25.257812 -34.773438 24.96875 -34.921875 C 24.675781 -35.078125 24.335938 -35.191406 23.953125 -35.265625 C 23.566406 -35.347656 23.1875 -35.425781 22.8125 -35.5 L 22.515625 -35.734375 L 22.515625 -37.9375 L 22.8125 -38.15625 C 23.570312 -38.007812 24.382812 -37.914062 25.25 -37.875 C 26.125 -37.832031 27.003906 -37.8125 27.890625 -37.8125 L 33.03125 -37.8125 C 33.488281 -37.8125 33.878906 -37.8125 34.203125 -37.8125 C 34.535156 -37.8125 34.863281 -37.832031 35.1875 -37.875 C 35.519531 -37.914062 35.875 -37.953125 36.25 -37.984375 C 36.632812 -38.023438 37.097656 -38.082031 37.640625 -38.15625 L 37.875 -37.9375 L 37.875 -35.734375 L 37.640625 -35.5 C 37.097656 -35.425781 36.414062 -35.273438 35.59375 -35.046875 C 34.769531 -34.816406 34.066406 -34.523438 33.484375 -34.171875 Z M 33.484375 -34.171875 "/></g></g></g><g fill="#a98a0f" fill-opacity="1"><g transform="translate(389.280654, 539.440808)"><g><path d="M 7.21875 -31.578125 C 7.132812 -32.234375 6.988281 -32.878906 6.78125 -33.515625 C 6.570312 -34.148438 6.253906 -34.617188 5.828125 -34.921875 C 5.523438 -35.117188 5.140625 -35.253906 4.671875 -35.328125 C 4.210938 -35.410156 3.578125 -35.453125 2.765625 -35.453125 L 2.484375 -35.6875 L 2.3125 -37.875 L 2.421875 -38.109375 C 2.765625 -38.066406 3.234375 -38.023438 3.828125 -37.984375 C 4.429688 -37.953125 5.050781 -37.914062 5.6875 -37.875 C 6.320312 -37.832031 6.925781 -37.800781 7.5 -37.78125 C 8.082031 -37.769531 8.546875 -37.765625 8.890625 -37.765625 L 12.296875 -37.765625 C 12.640625 -37.765625 13.085938 -37.769531 13.640625 -37.78125 C 14.203125 -37.800781 14.800781 -37.832031 15.4375 -37.875 C 16.070312 -37.914062 16.6875 -37.953125 17.28125 -37.984375 C 17.882812 -38.023438 18.378906 -38.066406 18.765625 -38.109375 L 18.875 -37.875 L 18.703125 -35.6875 L 18.46875 -35.453125 C 17.507812 -35.453125 16.804688 -35.398438 16.359375 -35.296875 C 15.921875 -35.203125 15.566406 -35.0625 15.296875 -34.875 C 14.492188 -34.332031 14.03125 -33.234375 13.90625 -31.578125 C 13.875 -31.191406 13.847656 -30.796875 13.828125 -30.390625 C 13.804688 -29.992188 13.796875 -29.476562 13.796875 -28.84375 C 13.796875 -28.207031 13.796875 -27.40625 13.796875 -26.4375 C 13.796875 -25.476562 13.796875 -24.269531 13.796875 -22.8125 L 13.796875 -15.0625 C 13.796875 -13.5625 13.796875 -12.335938 13.796875 -11.390625 C 13.796875 -10.453125 13.804688 -9.664062 13.828125 -9.03125 C 13.847656 -8.394531 13.863281 -7.835938 13.875 -7.359375 C 13.894531 -6.878906 13.945312 -6.3125 14.03125 -5.65625 C 14.070312 -4.882812 14.515625 -4.5 15.359375 -4.5 L 20.734375 -4.5 C 21.992188 -4.5 23 -4.523438 23.75 -4.578125 C 24.507812 -4.640625 25.097656 -4.796875 25.515625 -5.046875 C 25.941406 -5.296875 26.269531 -5.648438 26.5 -6.109375 C 26.726562 -6.578125 26.941406 -7.21875 27.140625 -8.03125 L 27.3125 -8.25 L 29.96875 -8.25 L 28.921875 -0.34375 L 28.46875 0.234375 C 28.15625 0.191406 27.671875 0.160156 27.015625 0.140625 C 26.359375 0.117188 25.664062 0.0976562 24.9375 0.078125 C 24.207031 0.0664062 23.484375 0.0507812 22.765625 0.03125 C 22.054688 0.0078125 21.507812 0 21.125 0 L 8.890625 0 C 8.617188 0 8.1875 0.0078125 7.59375 0.03125 C 7 0.0507812 6.375 0.078125 5.71875 0.109375 C 5.0625 0.148438 4.425781 0.1875 3.8125 0.21875 C 3.195312 0.257812 2.734375 0.300781 2.421875 0.34375 L 2.3125 0.109375 L 2.484375 -2.078125 L 2.765625 -2.3125 C 4.234375 -2.3125 5.238281 -2.519531 5.78125 -2.9375 C 6.082031 -3.207031 6.375 -3.628906 6.65625 -4.203125 C 6.945312 -4.785156 7.132812 -5.460938 7.21875 -6.234375 C 7.257812 -6.617188 7.285156 -7.144531 7.296875 -7.8125 C 7.316406 -8.488281 7.335938 -9.191406 7.359375 -9.921875 C 7.378906 -10.660156 7.390625 -11.347656 7.390625 -11.984375 C 7.390625 -12.617188 7.390625 -13.070312 7.390625 -13.34375 L 7.390625 -22.75 C 7.390625 -24.863281 7.378906 -26.71875 7.359375 -28.3125 C 7.335938 -29.914062 7.289062 -31.003906 7.21875 -31.578125 Z M 7.21875 -31.578125 "/></g></g></g><g fill="#a98a0f" fill-opacity="1"><g transform="translate(421.261982, 539.440808)"><g><path d="M 18.875 -37.875 L 18.703125 -35.6875 L 18.46875 -35.453125 C 17.851562 -35.453125 17.273438 -35.421875 16.734375 -35.359375 C 16.203125 -35.304688 15.742188 -35.144531 15.359375 -34.875 C 15.015625 -34.601562 14.695312 -34.253906 14.40625 -33.828125 C 14.113281 -33.410156 13.96875 -32.660156 13.96875 -31.578125 C 13.925781 -31.035156 13.894531 -30.535156 13.875 -30.078125 C 13.863281 -29.617188 13.847656 -29.082031 13.828125 -28.46875 C 13.804688 -27.851562 13.796875 -27.101562 13.796875 -26.21875 C 13.796875 -25.332031 13.796875 -24.195312 13.796875 -22.8125 L 13.796875 -14.484375 C 13.796875 -13.097656 13.796875 -11.972656 13.796875 -11.109375 C 13.796875 -10.242188 13.804688 -9.519531 13.828125 -8.9375 C 13.847656 -8.363281 13.863281 -7.875 13.875 -7.46875 C 13.894531 -7.070312 13.925781 -6.640625 13.96875 -6.171875 C 14.050781 -5.097656 14.222656 -4.347656 14.484375 -3.921875 C 14.753906 -3.503906 15.046875 -3.160156 15.359375 -2.890625 C 15.703125 -2.617188 16.148438 -2.453125 16.703125 -2.390625 C 17.265625 -2.335938 17.851562 -2.3125 18.46875 -2.3125 L 18.703125 -2.078125 L 18.875 0.109375 L 18.765625 0.34375 C 18.492188 0.34375 18.050781 0.320312 17.4375 0.28125 C 16.820312 0.25 16.1875 0.210938 15.53125 0.171875 C 14.875 0.128906 14.238281 0.0859375 13.625 0.046875 C 13.007812 0.015625 12.566406 0 12.296875 0 L 8.890625 0 C 8.617188 0 8.175781 0.015625 7.5625 0.046875 C 6.945312 0.0859375 6.3125 0.128906 5.65625 0.171875 C 5 0.210938 4.363281 0.25 3.75 0.28125 C 3.132812 0.320312 2.691406 0.34375 2.421875 0.34375 L 2.3125 0.109375 L 2.484375 -2.078125 L 2.765625 -2.3125 C 3.378906 -2.3125 3.96875 -2.335938 4.53125 -2.390625 C 5.09375 -2.453125 5.523438 -2.617188 5.828125 -2.890625 C 6.140625 -3.160156 6.421875 -3.503906 6.671875 -3.921875 C 6.921875 -4.347656 7.125 -5.097656 7.28125 -6.171875 C 7.28125 -6.441406 7.285156 -6.757812 7.296875 -7.125 C 7.316406 -7.488281 7.335938 -7.941406 7.359375 -8.484375 C 7.378906 -9.023438 7.390625 -9.679688 7.390625 -10.453125 C 7.390625 -11.222656 7.390625 -12.1875 7.390625 -13.34375 L 7.390625 -22.75 C 7.390625 -24.09375 7.390625 -25.226562 7.390625 -26.15625 C 7.390625 -27.082031 7.378906 -27.867188 7.359375 -28.515625 C 7.335938 -29.171875 7.316406 -29.726562 7.296875 -30.1875 C 7.285156 -30.65625 7.257812 -31.117188 7.21875 -31.578125 C 7.132812 -32.578125 6.957031 -33.304688 6.6875 -33.765625 C 6.425781 -34.234375 6.140625 -34.601562 5.828125 -34.875 C 5.484375 -35.144531 5.039062 -35.304688 4.5 -35.359375 C 3.957031 -35.421875 3.378906 -35.453125 2.765625 -35.453125 L 2.484375 -35.6875 L 2.3125 -37.875 L 2.421875 -38.109375 C 2.691406 -38.109375 3.132812 -38.085938 3.75 -38.046875 C 4.363281 -38.003906 5 -37.960938 5.65625 -37.921875 C 6.3125 -37.890625 6.945312 -37.851562 7.5625 -37.8125 C 8.175781 -37.78125 8.617188 -37.765625 8.890625 -37.765625 L 12.296875 -37.765625 C 12.566406 -37.765625 13.007812 -37.78125 13.625 -37.8125 C 14.238281 -37.851562 14.875 -37.890625 15.53125 -37.921875 C 16.1875 -37.960938 16.820312 -38.003906 17.4375 -38.046875 C 18.050781 -38.085938 18.492188 -38.109375 18.765625 -38.109375 Z M 18.875 -37.875 "/></g></g></g><g fill="#a98a0f" fill-opacity="1"><g transform="translate(443.891457, 539.440808)"><g><path d="M 43.46875 -37.875 L 43.359375 -35.6875 L 43.0625 -35.453125 C 42.488281 -35.453125 41.921875 -35.421875 41.359375 -35.359375 C 40.804688 -35.304688 40.359375 -35.144531 40.015625 -34.875 C 39.703125 -34.601562 39.378906 -34.253906 39.046875 -33.828125 C 38.722656 -33.410156 38.503906 -32.660156 38.390625 -31.578125 C 38.347656 -31.035156 38.316406 -30.535156 38.296875 -30.078125 C 38.285156 -29.617188 38.269531 -29.082031 38.25 -28.46875 C 38.226562 -27.851562 38.21875 -27.101562 38.21875 -26.21875 C 38.21875 -25.332031 38.21875 -24.195312 38.21875 -22.8125 L 38.21875 -13.796875 C 38.21875 -11.640625 38.226562 -9.867188 38.25 -8.484375 C 38.269531 -7.097656 38.285156 -5.914062 38.296875 -4.9375 C 38.316406 -3.957031 38.359375 -3.082031 38.421875 -2.3125 C 38.484375 -1.539062 38.550781 -0.691406 38.625 0.234375 L 38.15625 0.515625 L 31.0625 0.234375 L 30.484375 -0.46875 L 12.640625 -27.359375 C 12.722656 -26.671875 12.769531 -25.566406 12.78125 -24.046875 C 12.800781 -22.523438 12.8125 -20.765625 12.8125 -18.765625 L 12.8125 -14.484375 C 12.8125 -14.023438 12.8125 -13.421875 12.8125 -12.671875 C 12.8125 -11.921875 12.820312 -11.140625 12.84375 -10.328125 C 12.863281 -9.523438 12.882812 -8.75 12.90625 -8 C 12.925781 -7.25 12.953125 -6.640625 12.984375 -6.171875 C 13.066406 -5.210938 13.28125 -4.484375 13.625 -3.984375 C 13.96875 -3.484375 14.332031 -3.117188 14.71875 -2.890625 C 15.03125 -2.578125 15.4375 -2.398438 15.9375 -2.359375 C 16.4375 -2.328125 17.070312 -2.3125 17.84375 -2.3125 L 18.125 -2.078125 L 18.296875 0.109375 L 18.1875 0.34375 C 17.875 0.34375 17.4375 0.320312 16.875 0.28125 C 16.320312 0.25 15.75 0.210938 15.15625 0.171875 C 14.5625 0.128906 13.984375 0.0859375 13.421875 0.046875 C 12.867188 0.015625 12.457031 0 12.1875 0 L 8.78125 0 C 8.507812 0 8.066406 0.015625 7.453125 0.046875 C 6.835938 0.0859375 6.203125 0.128906 5.546875 0.171875 C 4.890625 0.210938 4.253906 0.25 3.640625 0.28125 C 3.023438 0.320312 2.582031 0.34375 2.3125 0.34375 L 2.1875 0.109375 L 2.359375 -2.078125 L 2.65625 -2.3125 C 3.34375 -2.3125 3.925781 -2.335938 4.40625 -2.390625 C 4.894531 -2.453125 5.332031 -2.617188 5.71875 -2.890625 C 5.988281 -3.078125 6.316406 -3.390625 6.703125 -3.828125 C 7.085938 -4.273438 7.335938 -5.054688 7.453125 -6.171875 C 7.484375 -6.441406 7.507812 -6.757812 7.53125 -7.125 C 7.550781 -7.488281 7.5625 -7.941406 7.5625 -8.484375 C 7.5625 -9.023438 7.5625 -9.679688 7.5625 -10.453125 C 7.5625 -11.222656 7.5625 -12.1875 7.5625 -13.34375 L 7.5625 -22.75 C 7.5625 -24.09375 7.5625 -25.226562 7.5625 -26.15625 C 7.5625 -27.082031 7.5625 -27.867188 7.5625 -28.515625 C 7.5625 -29.171875 7.550781 -29.726562 7.53125 -30.1875 C 7.507812 -30.65625 7.484375 -31.117188 7.453125 -31.578125 C 7.367188 -32.390625 7.144531 -33.082031 6.78125 -33.65625 C 6.414062 -34.238281 6.0625 -34.644531 5.71875 -34.875 C 5.375 -35.175781 4.941406 -35.347656 4.421875 -35.390625 C 3.898438 -35.429688 3.3125 -35.453125 2.65625 -35.453125 L 2.359375 -35.6875 L 2.1875 -37.875 L 2.3125 -38.109375 C 2.582031 -38.109375 2.972656 -38.085938 3.484375 -38.046875 C 4.003906 -38.003906 4.535156 -37.960938 5.078125 -37.921875 C 5.617188 -37.890625 6.148438 -37.851562 6.671875 -37.8125 C 7.191406 -37.78125 7.585938 -37.765625 7.859375 -37.765625 L 12.765625 -37.765625 C 13.066406 -37.765625 13.445312 -37.78125 13.90625 -37.8125 C 14.375 -37.851562 14.78125 -37.910156 15.125 -37.984375 L 15.421875 -37.8125 C 15.535156 -37.269531 15.820312 -36.523438 16.28125 -35.578125 C 16.738281 -34.640625 17.304688 -33.582031 17.984375 -32.40625 C 18.660156 -31.238281 19.378906 -30.007812 20.140625 -28.71875 C 20.910156 -27.425781 21.679688 -26.148438 22.453125 -24.890625 C 23.835938 -22.578125 25.066406 -20.5625 26.140625 -18.84375 C 27.222656 -17.132812 28.1875 -15.644531 29.03125 -14.375 C 29.882812 -13.101562 30.617188 -12.035156 31.234375 -11.171875 C 31.847656 -10.304688 32.367188 -9.582031 32.796875 -9 C 32.796875 -10 32.800781 -10.976562 32.8125 -11.9375 C 32.832031 -12.90625 32.84375 -13.890625 32.84375 -14.890625 L 32.84375 -22.75 C 32.84375 -24.09375 32.84375 -25.226562 32.84375 -26.15625 C 32.84375 -27.082031 32.832031 -27.867188 32.8125 -28.515625 C 32.800781 -29.171875 32.785156 -29.726562 32.765625 -30.1875 C 32.742188 -30.65625 32.710938 -31.117188 32.671875 -31.578125 C 32.597656 -32.234375 32.4375 -32.835938 32.1875 -33.390625 C 31.9375 -33.953125 31.539062 -34.445312 31 -34.875 C 30.65625 -35.175781 30.203125 -35.347656 29.640625 -35.390625 C 29.085938 -35.429688 28.503906 -35.453125 27.890625 -35.453125 L 27.65625 -35.6875 L 27.484375 -37.875 L 27.59375 -38.109375 C 27.863281 -38.109375 28.25 -38.085938 28.75 -38.046875 C 29.25 -38.003906 29.757812 -37.960938 30.28125 -37.921875 C 30.800781 -37.890625 31.3125 -37.851562 31.8125 -37.8125 C 32.3125 -37.78125 32.695312 -37.765625 32.96875 -37.765625 L 37.984375 -37.765625 C 38.253906 -37.765625 38.640625 -37.769531 39.140625 -37.78125 C 39.640625 -37.800781 40.160156 -37.832031 40.703125 -37.875 C 41.242188 -37.914062 41.765625 -37.953125 42.265625 -37.984375 C 42.765625 -38.023438 43.148438 -38.066406 43.421875 -38.109375 Z M 43.46875 -37.875 "/></g></g></g><g fill="#a98a0f" fill-opacity="1"><g transform="translate(490.420113, 539.440808)"><g><path d="M 35.15625 -1.4375 C 33.238281 -0.863281 31.21875 -0.375 29.09375 0.03125 C 26.976562 0.4375 24.765625 0.640625 22.453125 0.640625 C 19.109375 0.640625 16.191406 0.128906 13.703125 -0.890625 C 11.222656 -1.910156 9.164062 -3.304688 7.53125 -5.078125 C 5.894531 -6.847656 4.671875 -8.90625 3.859375 -11.25 C 3.054688 -13.601562 2.65625 -16.085938 2.65625 -18.703125 C 2.65625 -21.472656 3.085938 -24.050781 3.953125 -26.4375 C 4.816406 -28.820312 6.09375 -30.898438 7.78125 -32.671875 C 9.476562 -34.441406 11.578125 -35.835938 14.078125 -36.859375 C 16.585938 -37.878906 19.5 -38.390625 22.8125 -38.390625 C 23.539062 -38.390625 24.394531 -38.347656 25.375 -38.265625 C 26.351562 -38.191406 27.378906 -38.054688 28.453125 -37.859375 C 29.535156 -37.671875 30.644531 -37.414062 31.78125 -37.09375 C 32.914062 -36.769531 34.003906 -36.359375 35.046875 -35.859375 L 35.15625 -35.328125 L 34.171875 -29.046875 L 31.578125 -29.046875 L 31.34375 -29.21875 C 31.15625 -30.519531 30.378906 -31.582031 29.015625 -32.40625 C 27.648438 -33.238281 25.484375 -33.65625 22.515625 -33.65625 C 20.671875 -33.65625 19.046875 -33.488281 17.640625 -33.15625 C 16.234375 -32.832031 14.929688 -32.210938 13.734375 -31.296875 C 12.890625 -30.640625 12.195312 -29.859375 11.65625 -28.953125 C 11.125 -28.046875 10.703125 -27.050781 10.390625 -25.96875 C 10.085938 -24.894531 9.875 -23.757812 9.75 -22.5625 C 9.632812 -21.375 9.578125 -20.1875 9.578125 -19 C 9.578125 -16.644531 9.894531 -14.546875 10.53125 -12.703125 C 11.164062 -10.859375 12.039062 -9.300781 13.15625 -8.03125 C 14.28125 -6.757812 15.601562 -5.785156 17.125 -5.109375 C 18.644531 -4.429688 20.285156 -4.09375 22.046875 -4.09375 C 22.585938 -4.09375 23.175781 -4.117188 23.8125 -4.171875 C 24.445312 -4.234375 25.070312 -4.320312 25.6875 -4.4375 C 26.300781 -4.5625 26.847656 -4.695312 27.328125 -4.84375 C 27.816406 -5 28.15625 -5.15625 28.34375 -5.3125 C 28.570312 -5.425781 28.707031 -5.578125 28.75 -5.765625 C 28.789062 -5.960938 28.8125 -6.21875 28.8125 -6.53125 C 28.8125 -6.789062 28.8125 -7.226562 28.8125 -7.84375 C 28.8125 -8.46875 28.769531 -8.953125 28.6875 -9.296875 C 28.613281 -10.296875 28.410156 -11.054688 28.078125 -11.578125 C 27.753906 -12.097656 27.476562 -12.4375 27.25 -12.59375 C 26.90625 -12.894531 26.382812 -13.0625 25.6875 -13.09375 C 25 -13.132812 24.347656 -13.15625 23.734375 -13.15625 L 23.4375 -13.390625 L 23.265625 -15.8125 L 23.375 -16.046875 C 23.644531 -16.046875 24.078125 -16.023438 24.671875 -15.984375 C 25.273438 -15.953125 25.894531 -15.914062 26.53125 -15.875 C 27.164062 -15.832031 27.78125 -15.789062 28.375 -15.75 C 28.96875 -15.71875 29.398438 -15.703125 29.671875 -15.703125 L 33.71875 -15.703125 C 33.988281 -15.703125 34.351562 -15.71875 34.8125 -15.75 C 35.269531 -15.789062 35.75 -15.832031 36.25 -15.875 C 36.75 -15.914062 37.226562 -15.953125 37.6875 -15.984375 C 38.15625 -16.023438 38.523438 -16.046875 38.796875 -16.046875 L 38.90625 -15.8125 L 38.796875 -13.28125 L 38.515625 -13.046875 C 37.390625 -13.046875 36.601562 -12.726562 36.15625 -12.09375 C 35.71875 -11.457031 35.460938 -10.523438 35.390625 -9.296875 C 35.316406 -8.523438 35.269531 -7.707031 35.25 -6.84375 C 35.226562 -5.976562 35.21875 -5.332031 35.21875 -4.90625 C 35.21875 -4.332031 35.226562 -3.707031 35.25 -3.03125 C 35.269531 -2.351562 35.316406 -1.921875 35.390625 -1.734375 Z M 35.15625 -1.4375 "/></g></g></g><g fill="#a98a0f" fill-opacity="1"><g transform="translate(532.388299, 539.440808)"><g><path d="M 35.15625 -1.4375 C 33.238281 -0.863281 31.21875 -0.375 29.09375 0.03125 C 26.976562 0.4375 24.765625 0.640625 22.453125 0.640625 C 19.109375 0.640625 16.191406 0.128906 13.703125 -0.890625 C 11.222656 -1.910156 9.164062 -3.304688 7.53125 -5.078125 C 5.894531 -6.847656 4.671875 -8.90625 3.859375 -11.25 C 3.054688 -13.601562 2.65625 -16.085938 2.65625 -18.703125 C 2.65625 -21.472656 3.085938 -24.050781 3.953125 -26.4375 C 4.816406 -28.820312 6.09375 -30.898438 7.78125 -32.671875 C 9.476562 -34.441406 11.578125 -35.835938 14.078125 -36.859375 C 16.585938 -37.878906 19.5 -38.390625 22.8125 -38.390625 C 23.539062 -38.390625 24.394531 -38.347656 25.375 -38.265625 C 26.351562 -38.191406 27.378906 -38.054688 28.453125 -37.859375 C 29.535156 -37.671875 30.644531 -37.414062 31.78125 -37.09375 C 32.914062 -36.769531 34.003906 -36.359375 35.046875 -35.859375 L 35.15625 -35.328125 L 34.171875 -29.046875 L 31.578125 -29.046875 L 31.34375 -29.21875 C 31.15625 -30.519531 30.378906 -31.582031 29.015625 -32.40625 C 27.648438 -33.238281 25.484375 -33.65625 22.515625 -33.65625 C 20.671875 -33.65625 19.046875 -33.488281 17.640625 -33.15625 C 16.234375 -32.832031 14.929688 -32.210938 13.734375 -31.296875 C 12.890625 -30.640625 12.195312 -29.859375 11.65625 -28.953125 C 11.125 -28.046875 10.703125 -27.050781 10.390625 -25.96875 C 10.085938 -24.894531 9.875 -23.757812 9.75 -22.5625 C 9.632812 -21.375 9.578125 -20.1875 9.578125 -19 C 9.578125 -16.644531 9.894531 -14.546875 10.53125 -12.703125 C 11.164062 -10.859375 12.039062 -9.300781 13.15625 -8.03125 C 14.28125 -6.757812 15.601562 -5.785156 17.125 -5.109375 C 18.644531 -4.429688 20.285156 -4.09375 22.046875 -4.09375 C 22.585938 -4.09375 23.175781 -4.117188 23.8125 -4.171875 C 24.445312 -4.234375 25.070312 -4.320312 25.6875 -4.4375 C 26.300781 -4.5625 26.847656 -4.695312 27.328125 -4.84375 C 27.816406 -5 28.15625 -5.15625 28.34375 -5.3125 C 28.570312 -5.425781 28.707031 -5.578125 28.75 -5.765625 C 28.789062 -5.960938 28.8125 -6.21875 28.8125 -6.53125 C 28.8125 -6.789062 28.8125 -7.226562 28.8125 -7.84375 C 28.8125 -8.46875 28.769531 -8.953125 28.6875 -9.296875 C 28.613281 -10.296875 28.410156 -11.054688 28.078125 -11.578125 C 27.753906 -12.097656 27.476562 -12.4375 27.25 -12.59375 C 26.90625 -12.894531 26.382812 -13.0625 25.6875 -13.09375 C 25 -13.132812 24.347656 -13.15625 23.734375 -13.15625 L 23.4375 -13.390625 L 23.265625 -15.8125 L 23.375 -16.046875 C 23.644531 -16.046875 24.078125 -16.023438 24.671875 -15.984375 C 25.273438 -15.953125 25.894531 -15.914062 26.53125 -15.875 C 27.164062 -15.832031 27.78125 -15.789062 28.375 -15.75 C 28.96875 -15.71875 29.398438 -15.703125 29.671875 -15.703125 L 33.71875 -15.703125 C 33.988281 -15.703125 34.351562 -15.71875 34.8125 -15.75 C 35.269531 -15.789062 35.75 -15.832031 36.25 -15.875 C 36.75 -15.914062 37.226562 -15.953125 37.6875 -15.984375 C 38.15625 -16.023438 38.523438 -16.046875 38.796875 -16.046875 L 38.90625 -15.8125 L 38.796875 -13.28125 L 38.515625 -13.046875 C 37.390625 -13.046875 36.601562 -12.726562 36.15625 -12.09375 C 35.71875 -11.457031 35.460938 -10.523438 35.390625 -9.296875 C 35.316406 -8.523438 35.269531 -7.707031 35.25 -6.84375 C 35.226562 -5.976562 35.21875 -5.332031 35.21875 -4.90625 C 35.21875 -4.332031 35.226562 -3.707031 35.25 -3.03125 C 35.269531 -2.351562 35.316406 -1.921875 35.390625 -1.734375 Z M 35.15625 -1.4375 "/></g></g></g><g fill="#a98a0f" fill-opacity="1"><g transform="translate(574.356485, 539.440808)"><g><path d="M 22.28125 -38.390625 L 32.21875 -12.1875 C 32.5625 -11.21875 32.867188 -10.40625 33.140625 -9.75 C 33.410156 -9.101562 33.628906 -8.546875 33.796875 -8.078125 C 33.972656 -7.617188 34.128906 -7.242188 34.265625 -6.953125 C 34.398438 -6.671875 34.523438 -6.410156 34.640625 -6.171875 C 35.097656 -5.210938 35.566406 -4.472656 36.046875 -3.953125 C 36.535156 -3.429688 37.019531 -3.046875 37.5 -2.796875 C 37.976562 -2.546875 38.46875 -2.398438 38.96875 -2.359375 C 39.46875 -2.328125 39.96875 -2.3125 40.46875 -2.3125 L 40.765625 -2.078125 L 40.9375 0.109375 L 40.8125 0.34375 C 40.550781 0.34375 40.148438 0.320312 39.609375 0.28125 C 39.066406 0.25 38.503906 0.210938 37.921875 0.171875 C 37.347656 0.128906 36.800781 0.0859375 36.28125 0.046875 C 35.757812 0.015625 35.367188 0 35.109375 0 L 30.890625 0 C 30.617188 0 30.175781 0.015625 29.5625 0.046875 C 28.945312 0.0859375 28.300781 0.128906 27.625 0.171875 C 26.945312 0.210938 26.300781 0.25 25.6875 0.28125 C 25.070312 0.320312 24.628906 0.34375 24.359375 0.34375 L 24.25 0.109375 L 24.421875 -2.078125 L 24.65625 -2.3125 C 25.65625 -2.3125 26.414062 -2.4375 26.9375 -2.6875 C 27.457031 -2.9375 27.71875 -3.617188 27.71875 -4.734375 C 27.71875 -5.347656 27.609375 -6.222656 27.390625 -7.359375 C 27.179688 -8.492188 26.691406 -9.910156 25.921875 -11.609375 L 24.703125 -14.375 L 14.609375 -14.375 L 13.453125 -11.609375 C 12.753906 -9.910156 12.234375 -8.460938 11.890625 -7.265625 C 11.546875 -6.078125 11.375 -5.234375 11.375 -4.734375 C 11.375 -3.804688 11.566406 -3.171875 11.953125 -2.828125 C 12.335938 -2.484375 13.03125 -2.3125 14.03125 -2.3125 L 14.3125 -2.078125 L 14.484375 0.109375 L 14.375 0.34375 C 14.101562 0.34375 13.675781 0.320312 13.09375 0.28125 C 12.519531 0.25 11.914062 0.210938 11.28125 0.171875 C 10.644531 0.128906 10.039062 0.0859375 9.46875 0.046875 C 8.894531 0.015625 8.472656 0 8.203125 0 L 4.796875 0 C 4.523438 0 4.117188 0.015625 3.578125 0.046875 C 3.035156 0.0859375 2.476562 0.128906 1.90625 0.171875 C 1.332031 0.210938 0.785156 0.25 0.265625 0.28125 C -0.253906 0.320312 -0.648438 0.34375 -0.921875 0.34375 L -0.984375 0.109375 L -0.859375 -2.078125 L -0.578125 -2.3125 C -0.078125 -2.3125 0.421875 -2.347656 0.921875 -2.421875 C 1.421875 -2.503906 1.921875 -2.675781 2.421875 -2.9375 C 2.921875 -3.207031 3.410156 -3.582031 3.890625 -4.0625 C 4.378906 -4.550781 4.875 -5.179688 5.375 -5.953125 C 5.488281 -6.179688 5.660156 -6.535156 5.890625 -7.015625 C 6.117188 -7.492188 6.484375 -8.347656 6.984375 -9.578125 C 7.484375 -10.816406 8.175781 -12.570312 9.0625 -14.84375 C 9.945312 -17.113281 11.125 -20.132812 12.59375 -23.90625 L 17.546875 -36.65625 L 21.65625 -38.390625 Z M 15.59375 -18.59375 L 23.15625 -18.59375 L 19.453125 -28.8125 Z M 15.59375 -18.59375 "/></g></g></g><g fill="#000000" fill-opacity="1"><g transform="translate(268.012826, 575.690728)"><g><path d="M 6.453125 -6.421875 L 3.671875 -3.59375 L 3.671875 0 L 2.21875 0 L 2.21875 -13.65625 L 3.671875 -13.65625 L 3.671875 -5.40625 L 11.6875 -13.65625 L 13.34375 -13.65625 L 7.421875 -7.46875 L 13.75 0 L 12.03125 0 Z M 6.453125 -6.421875 "/></g></g></g><g fill="#000000" fill-opacity="1"><g transform="translate(291.41673, 575.690728)"><g><path d="M 2.21875 -13.65625 L 3.671875 -13.65625 L 3.671875 -1.25 L 11.3125 -1.25 L 11.3125 0 L 2.21875 0 Z M 2.21875 -13.65625 "/></g></g></g><g fill="#000000" fill-opacity="1"><g transform="translate(312.441635, 575.690728)"><g><path d="M 2.21875 -13.65625 L 3.671875 -13.65625 L 3.671875 0 L 2.21875 0 Z M 2.21875 -13.65625 "/></g></g></g><g fill="#000000" fill-opacity="1"><g transform="translate(327.870036, 575.690728)"><g><path d="M 13.625 -13.65625 L 13.625 0 L 12.4375 0 L 3.671875 -11.078125 L 3.671875 0 L 2.21875 0 L 2.21875 -13.65625 L 3.40625 -13.65625 L 12.203125 -2.578125 L 12.203125 -13.65625 Z M 13.625 -13.65625 "/></g></g></g><g fill="#000000" fill-opacity="1"><g transform="translate(353.262946, 575.690728)"><g><path d="M 2.21875 -13.65625 L 3.671875 -13.65625 L 3.671875 0 L 2.21875 0 Z M 2.21875 -13.65625 "/></g></g></g><g fill="#000000" fill-opacity="1"><g transform="translate(368.69135, 575.690728)"><g><path d="M 6.453125 -6.421875 L 3.671875 -3.59375 L 3.671875 0 L 2.21875 0 L 2.21875 -13.65625 L 3.671875 -13.65625 L 3.671875 -5.40625 L 11.6875 -13.65625 L 13.34375 -13.65625 L 7.421875 -7.46875 L 13.75 0 L 12.03125 0 Z M 6.453125 -6.421875 "/></g></g></g><g fill="#000000" fill-opacity="1"><g transform="translate(392.095249, 575.690728)"><g/></g></g><g fill="#000000" fill-opacity="1"><g transform="translate(406.74364, 575.690728)"><g><path d="M 11.84375 -6.828125 L 13.21875 -6.828125 L 13.21875 -1.625 C 12.582031 -1.0625 11.828125 -0.628906 10.953125 -0.328125 C 10.085938 -0.0351562 9.171875 0.109375 8.203125 0.109375 C 6.835938 0.109375 5.609375 -0.1875 4.515625 -0.78125 C 3.429688 -1.375 2.578125 -2.203125 1.953125 -3.265625 C 1.328125 -4.328125 1.015625 -5.515625 1.015625 -6.828125 C 1.015625 -8.140625 1.328125 -9.320312 1.953125 -10.375 C 2.578125 -11.4375 3.429688 -12.265625 4.515625 -12.859375 C 5.609375 -13.460938 6.847656 -13.765625 8.234375 -13.765625 C 9.265625 -13.765625 10.21875 -13.597656 11.09375 -13.265625 C 11.96875 -12.929688 12.703125 -12.441406 13.296875 -11.796875 L 12.40625 -10.875 C 11.320312 -11.945312 9.945312 -12.484375 8.28125 -12.484375 C 7.175781 -12.484375 6.175781 -12.238281 5.28125 -11.75 C 4.394531 -11.257812 3.695312 -10.582031 3.1875 -9.71875 C 2.6875 -8.851562 2.4375 -7.890625 2.4375 -6.828125 C 2.4375 -5.753906 2.6875 -4.789062 3.1875 -3.9375 C 3.695312 -3.082031 4.394531 -2.40625 5.28125 -1.90625 C 6.164062 -1.414062 7.160156 -1.171875 8.265625 -1.171875 C 9.671875 -1.171875 10.863281 -1.519531 11.84375 -2.21875 Z M 11.84375 -6.828125 "/></g></g></g><g fill="#000000" fill-opacity="1"><g transform="translate(431.356538, 575.690728)"><g><path d="M 2.21875 -13.65625 L 3.671875 -13.65625 L 3.671875 0 L 2.21875 0 Z M 2.21875 -13.65625 "/></g></g></g><g fill="#000000" fill-opacity="1"><g transform="translate(446.784936, 575.690728)"><g><path d="M 11.84375 -6.828125 L 13.21875 -6.828125 L 13.21875 -1.625 C 12.582031 -1.0625 11.828125 -0.628906 10.953125 -0.328125 C 10.085938 -0.0351562 9.171875 0.109375 8.203125 0.109375 C 6.835938 0.109375 5.609375 -0.1875 4.515625 -0.78125 C 3.429688 -1.375 2.578125 -2.203125 1.953125 -3.265625 C 1.328125 -4.328125 1.015625 -5.515625 1.015625 -6.828125 C 1.015625 -8.140625 1.328125 -9.320312 1.953125 -10.375 C 2.578125 -11.4375 3.429688 -12.265625 4.515625 -12.859375 C 5.609375 -13.460938 6.847656 -13.765625 8.234375 -13.765625 C 9.265625 -13.765625 10.21875 -13.597656 11.09375 -13.265625 C 11.96875 -12.929688 12.703125 -12.441406 13.296875 -11.796875 L 12.40625 -10.875 C 11.320312 -11.945312 9.945312 -12.484375 8.28125 -12.484375 C 7.175781 -12.484375 6.175781 -12.238281 5.28125 -11.75 C 4.394531 -11.257812 3.695312 -10.582031 3.1875 -9.71875 C 2.6875 -8.851562 2.4375 -7.890625 2.4375 -6.828125 C 2.4375 -5.753906 2.6875 -4.789062 3.1875 -3.9375 C 3.695312 -3.082031 4.394531 -2.40625 5.28125 -1.90625 C 6.164062 -1.414062 7.160156 -1.171875 8.265625 -1.171875 C 9.671875 -1.171875 10.863281 -1.519531 11.84375 -2.21875 Z M 11.84375 -6.828125 "/></g></g></g><g fill="#000000" fill-opacity="1"><g transform="translate(471.397834, 575.690728)"><g><path d="M 2.21875 -13.65625 L 3.671875 -13.65625 L 3.671875 0 L 2.21875 0 Z M 2.21875 -13.65625 "/></g></g></g></svg>