<svg xmlns="http://www.w3.org/2000/svg" xmlns:xlink="http://www.w3.org/1999/xlink" width="1000" zoomAndPan="magnify" viewBox="0 0 750 749.999995" height="1000" preserveAspectRatio="xMidYMid meet" version="1.0"><defs><clipPath id="1afa4c1d60"><path d="M 171 35 L 269 35 L 269 252 L 171 252 Z M 171 35 " clip-rule="nonzero"/></clipPath><clipPath id="b8aeaedeb2"><path d="M 37.5 139.1875 L 209.625 18.886719 L 327.351562 187.324219 L 155.222656 307.625 Z M 37.5 139.1875 " clip-rule="nonzero"/></clipPath><clipPath id="5b99acd00e"><path d="M 37.5 139.1875 L 209.625 18.886719 L 327.351562 187.324219 L 155.222656 307.625 Z M 37.5 139.1875 " clip-rule="nonzero"/></clipPath><clipPath id="4a8e967426"><path d="M 62 137 L 204 137 L 204 229 L 62 229 Z M 62 137 " clip-rule="nonzero"/></clipPath><clipPath id="98551ae119"><path d="M 37.5 139.1875 L 209.625 18.886719 L 327.351562 187.324219 L 155.222656 307.625 Z M 37.5 139.1875 " clip-rule="nonzero"/></clipPath><clipPath id="d8df9d8def"><path d="M 37.5 139.1875 L 209.625 18.886719 L 327.351562 187.324219 L 155.222656 307.625 Z M 37.5 139.1875 " clip-rule="nonzero"/></clipPath><clipPath id="fd074d1a8b"><path d="M 62.097656 137.246094 C 66.140625 146.472656 76.023438 151.988281 85.929688 153.746094 C 95.832031 155.5 106 154.167969 116.035156 153.355469 C 126.070312 152.542969 136.484375 152.316406 145.816406 156.117188 C 153.929688 159.425781 160.558594 165.542969 166.371094 172.109375 C 173.394531 180.050781 179.613281 189.230469 182.550781 199.300781 C 177.125 195.792969 171.234375 192.910156 165.195312 190.605469 C 153.332031 186.042969 140.832031 183.429688 128.398438 180.84375 C 113.859375 177.828125 99.34375 174.796875 84.808594 171.78125 C 104.757812 181.941406 127.257812 185.617188 148.6875 192.167969 C 170.105469 198.699219 191.804688 209.214844 203.554688 228.28125 C 196.164062 219.492188 183.351562 217.371094 171.933594 218.597656 C 160.519531 219.828125 149.5 223.777344 138.042969 224.734375 C 116.363281 226.484375 94.089844 216.648438 80.847656 199.425781 C 67.46875 181.996094 63.730469 159.15625 62.097656 137.246094 Z M 62.097656 137.246094 " clip-rule="nonzero"/></clipPath><clipPath id="8ca52b16e1"><path d="M 131.378906 199 L 651 199 L 651 730.875 L 131.378906 730.875 Z M 131.378906 199 " clip-rule="nonzero"/></clipPath><clipPath id="81e45e21f9"><path d="M 173 179.625 L 607 179.625 L 607 726 L 173 726 Z M 173 179.625 " clip-rule="nonzero"/></clipPath></defs><g clip-path="url(#1afa4c1d60)"><g clip-path="url(#b8aeaedeb2)"><g clip-path="url(#5b99acd00e)"><path fill="#a98a0f" d="M 186.394531 35.121094 C 195.992188 44.316406 198.355469 59.066406 196.039062 72.136719 C 193.734375 85.226562 187.457031 97.210938 181.90625 109.265625 C 176.339844 121.335938 171.328125 134.164062 171.832031 147.4375 C 172.253906 158.992188 176.824219 170 182.324219 180.160156 C 188.964844 192.519531 197.519531 204.367188 208.660156 212.582031 C 206.765625 204.257812 205.878906 195.652344 205.742188 187.121094 C 205.464844 170.339844 207.90625 153.65625 210.332031 137.058594 C 213.179688 117.664062 216.023438 98.300781 218.871094 78.90625 C 222.398438 108.246094 216.773438 137.832031 215.164062 167.332031 C 213.566406 196.851562 216.753906 228.527344 235.054688 251.742188 C 227.511719 238.589844 230.6875 221.742188 237.410156 208.140625 C 244.132812 194.542969 254.007812 182.664062 260.375 168.914062 C 272.417969 142.894531 270.320312 110.808594 254.964844 86.585938 C 239.441406 62.082031 212.816406 47.058594 186.394531 35.121094 Z M 186.394531 35.121094 " fill-opacity="1" fill-rule="nonzero"/></g></g></g><g clip-path="url(#4a8e967426)"><g clip-path="url(#98551ae119)"><g clip-path="url(#d8df9d8def)"><g clip-path="url(#fd074d1a8b)"><path fill="#00588c" d="M 157.132812 70.828125 L 246.296875 198.40625 L 108.519531 294.699219 L 19.351562 167.121094 Z M 157.132812 70.828125 " fill-opacity="1" fill-rule="nonzero"/></g></g></g></g><g clip-path="url(#8ca52b16e1)"><path fill="#00588c" d="M 298.015625 199.585938 L 415.523438 199.585938 C 428.082031 199.585938 438.390625 209.894531 438.390625 222.453125 L 438.390625 343.398438 L 496.15625 343.398438 C 489.414062 350.273438 482.671875 356.882812 476.0625 363.226562 C 451.609375 386.359375 425.570312 408.167969 399.132812 428.921875 C 370.847656 451.257812 341.765625 472.671875 311.894531 492.898438 C 299.734375 501.222656 287.441406 509.816406 275.148438 518.804688 L 275.148438 506.511719 L 154.332031 506.511719 C 141.773438 506.511719 131.464844 496.332031 131.464844 483.777344 L 131.464844 366.132812 C 131.464844 353.578125 141.773438 343.398438 154.332031 343.398438 L 275.148438 343.398438 L 275.148438 222.453125 C 275.148438 209.894531 285.457031 199.585938 298.015625 199.585938 Z M 627.542969 348.023438 C 639.835938 396.535156 617.101562 442.140625 582.074219 481.265625 L 582.074219 413.324219 C 553.917969 450.070312 517.4375 479.941406 478.972656 506.511719 L 556.960938 506.511719 C 524.707031 535.988281 487.5625 560.574219 457.691406 578.285156 C 455.179688 579.742188 448.171875 583.441406 438.390625 588.730469 L 438.390625 533.210938 C 435.085938 535.328125 431.78125 537.308594 428.476562 539.425781 C 396.359375 559.515625 363.578125 578.683594 332.117188 599.964844 C 313.875 612.125 295.765625 625.34375 278.847656 639.882812 C 282.945312 646.097656 290.082031 650.195312 298.015625 650.195312 L 334.101562 650.195312 C 281.757812 685.882812 246.066406 722.894531 309.25 730.957031 C 309.25 730.957031 303.566406 722.234375 307.796875 716.945312 C 320.222656 701.347656 420.546875 646.097656 451.742188 632.746094 C 539.90625 594.808594 712.40625 444.386719 627.542969 348.023438 Z M 627.542969 348.023438 " fill-opacity="1" fill-rule="evenodd"/></g><g clip-path="url(#81e45e21f9)"><path fill="#a98a0f" d="M 529.996094 179.625 C 529.996094 179.625 577.710938 255.496094 539.777344 311.542969 C 501.839844 367.71875 398.738281 449.804688 319.429688 503.867188 C 240.117188 557.929688 187.511719 604.328125 174.820312 649.269531 C 162.132812 694.078125 224.652344 722.234375 273.824219 725.007812 C 273.824219 725.007812 210.640625 691.300781 242.894531 656.273438 C 329.871094 561.632812 496.417969 510.476562 577.050781 397.859375 C 614.195312 346.042969 633.226562 250.476562 529.996094 179.625 Z M 529.996094 179.625 " fill-opacity="1" fill-rule="evenodd"/></g><path fill="#a98a0f" d="M 326.433594 725.667969 C 326.433594 725.667969 565.816406 642.921875 612.078125 539.691406 C 612.078125 539.691406 586.171875 699.101562 326.433594 725.667969 Z M 326.433594 725.667969 " fill-opacity="1" fill-rule="evenodd"/></svg>